<svg viewBox="0 0 40 41" fill="none" xmlns="http://www.w3.org/2000/svg"><g clip-path="url(#a)"><path d="m6.236 34.313 6.598 6.613 7.05-7.007 7.009 7.024 7.065-6.994c7.791-7.742 7.818-20.325.058-28.099-7.757-7.776-20.363-7.803-28.154-.061S-1.958 26.11 5.8 33.888q.213.215.434.422z" fill="url(#b)"/><path d="M12.856 29.139c-3.88-3.906-3.867-10.224.03-14.113q.171-.173.35-.332l6.698-6.418 6.75 6.512q.14.131.28.27c3.88 3.906 3.864 10.224-.03 14.113l-.012.012-7.024-7.07-.005.005-7.037 7.023z" fill="#000"/><path opacity=".15" d="m19.909 22.214-5.552 8.276-.234-.118a3.1 3.1 0 0 1-1.14-.993z" fill="#000"/></g><defs><linearGradient id="b" x1="43.695" y1="-6.044" x2="3.729" y2="37.677" gradientUnits="userSpaceOnUse"><stop stop-color="#00D8A1"/><stop offset=".52" stop-color="#057EEB"/><stop offset="1" stop-color="#BD1B8A"/></linearGradient><clipPath id="a"><path fill="#fff" d="M0 0h40v41H0z"/></clipPath></defs></svg>