<svg width="100" height="100" viewBox="0 0 100 100" fill="none" xmlns="http://www.w3.org/2000/svg">
<path d="M43.8853 21.8278H42.375V21.75H25.5V29.25H36.0966C34.5506 33.6159 30.3966 36.75 25.5 36.75C19.2872 36.75 14.25 31.7128 14.25 25.5C14.25 19.2872 19.2872 14.25 25.5 14.25C28.3678 14.25 30.9769 15.3319 32.9634 17.0991L38.2669 11.7956C34.9181 8.67469 30.4388 6.75 25.5 6.75C15.1453 6.75 6.75 15.1453 6.75 25.5C6.75 35.8547 15.1453 44.25 25.5 44.25C35.8547 44.25 44.25 35.8547 44.25 25.5C44.25 24.2428 44.1206 23.0156 43.8853 21.8278Z" fill="#FFC107"/>
<path d="M8.91187 16.7728L15.0722 21.2906C16.7391 17.1638 20.7759 14.25 25.5 14.25C28.3678 14.25 30.9769 15.3319 32.9634 17.0991L38.2669 11.7956C34.9181 8.67469 30.4387 6.75 25.5 6.75C18.2981 6.75 12.0525 10.8159 8.91187 16.7728Z" fill="#FF3D00"/>
<path d="M25.5 44.2502C30.3431 44.2502 34.7437 42.3967 38.0709 39.3827L32.2678 34.472C30.3853 35.898 28.0453 36.7502 25.5 36.7502C20.6231 36.7502 16.4822 33.6405 14.9222 29.3008L8.8078 34.0117C11.9109 40.0839 18.2128 44.2502 25.5 44.2502Z" fill="#4CAF50"/>
<path d="M43.8853 21.8278H42.375V21.75H25.5V29.25H36.0966C35.3541 31.3472 34.005 33.1556 32.265 34.4728L32.2678 34.4709L38.0709 39.3816C37.6603 39.7547 44.25 34.875 44.25 25.5C44.25 24.2428 44.1206 23.0156 43.8853 21.8278Z" fill="#1976D2"/>
<path d="M58.2279 8.40039L71.023 27.0543L57.6057 42.6004H60.4656L72.2904 28.9L81.6877 42.6004H90.7L77.3107 23.0816L89.9828 8.40039H87.1246L76.0451 21.2359L67.2402 8.40039H58.2279Z" fill="white"/>
<path d="M64.4625 59.6923C60.8801 56.8095 55.2129 56.3208 54.9703 56.3033C54.5941 56.2716 54.2355 56.4826 54.0808 56.8306C54.0668 56.8517 53.9437 57.1365 53.8066 57.5794C56.1762 57.9802 59.0871 58.7853 61.7203 60.4201C62.1422 60.6802 62.2722 61.2357 62.0121 61.6576C61.8398 61.9353 61.548 62.0865 61.2457 62.0865C61.084 62.0865 60.9187 62.0408 60.7711 61.9494C56.243 59.1404 50.5898 58.9997 49.5 58.9997C48.4101 58.9997 42.7535 59.1404 38.2289 61.9494C37.807 62.213 37.2515 62.0829 36.9914 61.6611C36.7277 61.2357 36.8578 60.6837 37.2797 60.4201C39.9129 58.7888 42.8238 57.9802 45.1933 57.5829C45.0562 57.1365 44.9332 56.8552 44.9226 56.8306C44.7644 56.4826 44.4094 56.2646 44.0297 56.3033C43.7871 56.3208 38.1199 56.8095 34.4883 59.731C32.5933 61.4853 28.8 71.7368 28.8 80.5997C28.8 80.7579 28.8422 80.9091 28.9195 81.0462C31.5351 85.6447 38.6754 86.847 40.3031 86.8997C40.3101 86.8997 40.3207 86.8997 40.3312 86.8997C40.6195 86.8997 40.8902 86.7626 41.059 86.5306L42.7043 84.2665C38.2641 83.1204 35.9965 81.1728 35.8664 81.0568C35.4937 80.7298 35.4586 80.1603 35.789 79.7876C36.116 79.415 36.6855 79.3798 37.0582 79.7068C37.1109 79.756 41.2875 83.2997 49.5 83.2997C57.7266 83.2997 61.9031 79.7419 61.9453 79.7068C62.318 79.3833 62.884 79.415 63.2144 79.7911C63.5414 80.1638 63.5062 80.7298 63.1336 81.0568C63.0035 81.1728 60.7359 83.1204 56.2957 84.2665L57.941 86.5306C58.1098 86.7626 58.3805 86.8997 58.6687 86.8997C58.6793 86.8997 58.6898 86.8997 58.6969 86.8997C60.3246 86.847 67.4648 85.6447 70.0805 81.0462C70.1578 80.9091 70.2 80.7579 70.2 80.5997C70.2 71.7369 66.4066 61.4853 64.4625 59.6923ZM43.65 76.9997C41.9097 76.9997 40.5 75.3896 40.5 73.3997C40.5 71.4099 41.9097 69.7997 43.65 69.7997C45.3902 69.7997 46.8 71.4099 46.8 73.3997C46.8 75.3896 45.3902 76.9997 43.65 76.9997ZM55.35 76.9997C53.6097 76.9997 52.2 75.3896 52.2 73.3997C52.2 71.4099 53.6097 69.7997 55.35 69.7997C57.0902 69.7997 58.5 71.4099 58.5 73.3997C58.5 75.3896 57.0902 76.9997 55.35 76.9997Z" fill="white"/>
</svg>
