<svg width="32" height="32" viewBox="0 0 32 32" fill="none" xmlns="http://www.w3.org/2000/svg">
<g id="google 1">
<g id="Group">
<path id="Vector" d="M25.6 16.2347C25.6 15.5734 25.536 14.8907 25.4293 14.2507H16.192V18.0267H21.4827C21.2693 19.2427 20.5653 20.3094 19.52 20.9921L22.6773 23.4454C24.5333 21.7174 25.6 19.2001 25.6 16.2347Z" fill="#4280EF"/>
<path id="Vector_2" d="M16.192 25.792C18.8373 25.792 21.056 24.9173 22.6773 23.424L19.52 20.992C18.6453 21.5893 17.5147 21.9307 16.192 21.9307C13.632 21.9307 11.4773 20.2027 10.688 17.8987L7.44534 20.3947C9.10934 23.7013 12.48 25.792 16.192 25.792Z" fill="#34A353"/>
<path id="Vector_3" d="M10.688 17.8773C10.2827 16.6613 10.2827 15.3387 10.688 14.1227L7.44533 11.6053C6.05867 14.3787 6.05867 17.6427 7.44533 20.3947L10.688 17.8773Z" fill="#F6B704"/>
<path id="Vector_4" d="M16.192 10.0907C17.5787 10.0693 18.944 10.6027 19.9467 11.5627L22.7413 8.74668C20.9707 7.08268 18.624 6.18668 16.192 6.20801C12.48 6.20801 9.10934 8.29868 7.44534 11.6053L10.688 14.1227C11.4773 11.7973 13.632 10.0907 16.192 10.0907Z" fill="#E54335"/>
</g>
</g>
</svg>
