<svg width="28" height="17" viewBox="0 0 28 17" fill="none" xmlns="http://www.w3.org/2000/svg">
<g id="Layer_1" clip-path="url(#clip0_564_9739)">
<path id="WalletConnect_00000073703063438220642730000002917717552236472496_" d="M6.03096 3.31982C10.4334 -1.10905 17.5735 -1.10905 21.976 3.31982L22.5054 3.84928C22.7283 4.07109 22.7283 4.42883 22.5054 4.65063L20.6943 6.47513C20.5828 6.58245 20.4087 6.58245 20.2972 6.47513L19.5658 5.73817C16.4938 2.64726 11.5132 2.64726 8.44118 5.73817L7.66099 6.52521C7.54954 6.63253 7.37539 6.63253 7.26393 6.52521L5.44582 4.70787C5.22291 4.48607 5.22291 4.12832 5.44582 3.90652L6.03096 3.31982ZM25.7237 7.09045L27.3398 8.7146C27.5627 8.93641 27.5627 9.29415 27.3398 9.51595L20.0604 16.8354C19.8375 17.0572 19.4822 17.0572 19.2663 16.8354L14.1045 11.641C14.0488 11.5837 13.9582 11.5837 13.9025 11.641L8.74071 16.8354C8.5178 17.0572 8.16254 17.0572 7.94659 16.8354L0.667183 9.51595C0.444272 9.29415 0.444272 8.93641 0.667183 8.7146L2.28328 7.09045C2.50619 6.86864 2.86145 6.86864 3.0774 7.09045L8.23916 12.2849C8.29489 12.3421 8.38545 12.3421 8.44118 12.2849L13.6029 7.09045C13.8259 6.86864 14.1811 6.86864 14.3971 7.09045L19.5588 12.2849C19.6146 12.3421 19.7051 12.3421 19.7608 12.2849L24.9226 7.09045C25.1455 6.86864 25.5008 6.86864 25.7237 7.09045Z" fill="#3B99FC"/>
</g>
<defs>
<clipPath id="clip0_564_9739">
<rect width="27" height="17" fill="white" transform="translate(0.5)"/>
</clipPath>
</defs>
</svg>
